<svg width="444" height="445" viewBox="0 0 444 445" fill="none" xmlns="http://www.w3.org/2000/svg">
<path fill-rule="evenodd" clip-rule="evenodd" d="M246 1.12206C203.911 5.88706 161.7 27.8141 133.92 59.3421C107.619 89.1921 91.377 128.135 89.327 166.263L88.695 178.013H45.919C8.36501 178.013 2.95101 178.205 1.57101 179.584C0.194014 180.962 0 186.196 0 221.929C0 260.16 0.11401 262.806 1.82901 264.358C3.47001 265.844 8.02601 266.013 46.329 266.013H89V308.942C89 346.634 89.192 352.062 90.571 353.442C91.951 354.821 97.379 355.013 135.071 355.013H178V310.513V266.013H222H266V310.666V355.319L277.423 354.707C304.19 353.272 332.56 344.628 356.24 330.691C437.041 283.138 466.99 181.612 424.929 97.8381C415.291 78.6431 405.652 65.7211 388.88 49.5131C351.128 13.0311 298.436 -4.81594 246 1.12206ZM179.75 90.093C178.126 91.039 178 94.236 178 134.563V178.013H133.5H89V222.013V266.013H133.5H178V222.013V178.013H220.066C247.15 178.013 262.82 178.382 264.066 179.048C265.932 180.047 266 181.594 266 223.048V266.013H309.465C351.414 266.013 352.966 265.946 353.965 264.079C354.655 262.789 355 233.66 355 176.614C355 93.0761 354.955 91.0591 353.066 90.0481C350.41 88.6271 182.193 88.67 179.75 90.093ZM178.677 355.669C178.305 356.042 178 375.327 178 398.525C178 438.116 178.112 440.805 179.829 442.358C181.467 443.841 185.882 444.013 222.257 444.013C257.949 444.013 263.048 443.822 264.439 442.431C265.841 441.029 265.992 435.985 265.761 398.181L265.5 355.513L222.427 355.253C198.737 355.109 179.05 355.297 178.677 355.669Z" fill="#1FCB4F"/>
</svg>
